<svg width="24" height="24" viewBox="0 0 24 24" fill="none" xmlns="http://www.w3.org/2000/svg">
<path fill-rule="evenodd" clip-rule="evenodd" d="M9.04289 6.04289C9.43342 5.65237 10.0666 5.65237 10.4571 6.04289L15.7071 11.2929C16.0976 11.6834 16.0976 12.3166 15.7071 12.7071L10.4571 17.9571C10.0666 18.3476 9.43342 18.3476 9.04289 17.9571C8.65237 17.5666 8.65237 16.9334 9.04289 16.5429L13.5858 12L9.04289 7.45711C8.65237 7.06658 8.65237 6.43342 9.04289 6.04289Z" fill="#1E1E20"/>
<path fill-rule="evenodd" clip-rule="evenodd" d="M0 12C0 11.4477 0.447715 11 1 11H15C15.5523 11 16 11.4477 16 12C16 12.5523 15.5523 13 15 13H1C0.447715 13 0 12.5523 0 12Z" fill="#1E1E20"/>
<path fill-rule="evenodd" clip-rule="evenodd" d="M14 1C14 0.447715 14.4477 0 15 0H22C22.5304 0 23.0391 0.210714 23.4142 0.585787C23.7893 0.960861 24 1.46957 24 2V22C24 22.5304 23.7893 23.0391 23.4142 23.4142C23.0391 23.7893 22.5304 24 22 24H15C14.4477 24 14 23.5523 14 23C14 22.4477 14.4477 22 15 22H22V2L15 2C14.4477 2 14 1.55228 14 1Z" fill="#1E1E20"/>
</svg>
